<svg width="22" height="17" viewBox="0 0 22 17" fill="none" xmlns="http://www.w3.org/2000/svg">
<path d="M21.8975 2C21.1275 2.35 20.2975 2.58 19.4375 2.69C20.3175 2.16 20.9975 1.32 21.3175 0.31C20.4875 0.81 19.5675 1.16 18.5975 1.36C17.8075 0.5 16.6975 0 15.4375 0C13.0875 0 11.1675 1.92 11.1675 4.29C11.1675 4.63 11.2075 4.96 11.2775 5.27C7.71754 5.09 4.54754 3.38 2.43754 0.79C2.06754 1.42 1.85754 2.16 1.85754 2.94C1.85754 4.43 2.60754 5.75 3.76754 6.5C3.05754 6.5 2.39754 6.3 1.81754 6V6.03C1.81754 8.11 3.29754 9.85 5.25754 10.24C4.62827 10.4122 3.96763 10.4362 3.32754 10.31C3.59915 11.1625 4.13108 11.9084 4.84856 12.4429C5.56604 12.9775 6.43299 13.2737 7.32754 13.29C5.81117 14.4904 3.93154 15.1393 1.99754 15.13C1.65754 15.13 1.31754 15.11 0.977539 15.07C2.87754 16.29 5.13754 17 7.55754 17C15.4375 17 19.7675 10.46 19.7675 4.79C19.7675 4.6 19.7675 4.42 19.7575 4.23C20.5975 3.63 21.3175 2.87 21.8975 2Z" fill="white"/>
</svg>
