<svg width="431" height="376" viewBox="0 0 431 376" fill="none" xmlns="http://www.w3.org/2000/svg">
<g filter="url(#filter0_d_238_9765)">
<path d="M414.556 189.325L306.102 189.591C302.81 189.599 300.146 192.279 300.155 195.577L300.361 292.767C300.37 296.064 303.045 298.732 306.337 298.724L414.79 298.457C418.083 298.45 420.747 295.77 420.74 292.473L420.531 195.281C420.525 191.984 417.848 189.316 414.556 189.325Z" fill="white"/>
</g>
<path d="M300.155 195.577C300.146 192.279 302.813 189.599 306.105 189.591L414.556 189.325C417.85 189.317 420.525 191.984 420.531 195.282L420.646 248.076L300.267 248.37L300.155 195.577Z" fill="#E7CBFD"/>
<path d="M411.634 256.025L309.312 256.275L309.339 268.402L411.659 268.149L411.634 256.025Z" fill="#E5E5EA"/>
<path d="M387.597 274.273L309.352 274.465L309.377 286.592L387.624 286.4L387.597 274.273Z" fill="#E5E5EA"/>
<g filter="url(#filter1_d_238_9765)">
<path d="M270.181 255.287L161.727 255.553C158.435 255.561 155.771 258.243 155.78 261.54L155.986 358.731C155.993 362.028 158.67 364.696 161.962 364.686L270.415 364.421C273.708 364.411 276.372 361.732 276.365 358.435L276.156 261.244C276.15 257.946 273.473 255.279 270.181 255.287Z" fill="white"/>
</g>
<path d="M155.78 261.54C155.771 258.24 158.435 255.561 161.73 255.554L270.181 255.287C273.475 255.279 276.15 257.946 276.156 261.244L276.269 314.035L155.892 314.332L155.78 261.54Z" fill="#FBD4B1"/>
<path d="M267.259 321.989L164.937 322.239L164.964 334.366L267.284 334.113L267.259 321.989Z" fill="#E5E5EA"/>
<path d="M243.223 340.237L164.977 340.429L165.002 352.553L243.247 352.361L243.223 340.237Z" fill="#E5E5EA"/>
<g filter="url(#filter2_d_238_9765)">
<path d="M269.612 134.292L161.159 134.558C157.867 134.567 155.203 137.247 155.209 140.545L155.418 237.735C155.424 241.033 158.099 243.7 161.394 243.692L269.845 243.425C273.139 243.417 275.801 240.737 275.795 237.439L275.586 140.249C275.579 136.951 272.904 134.284 269.612 134.292Z" fill="white"/>
</g>
<path d="M155.209 140.545C155.203 137.247 157.865 134.566 161.157 134.558L269.612 134.292C272.904 134.284 275.577 136.951 275.586 140.249L275.698 193.041L155.321 193.337L155.209 140.545Z" fill="#FFB0E4"/>
<path d="M266.69 200.992L164.371 201.244L164.397 213.37L266.717 213.118L266.69 200.992Z" fill="#E5E5EA"/>
<path d="M242.652 219.24L164.407 219.432L164.434 231.558L242.679 231.366L242.652 219.24Z" fill="#E5E5EA"/>
<path d="M235.369 171.227L233.741 176.189L236.87 180.356L231.689 180.328L228.73 184.619L227.154 179.638L222.196 178.125L226.406 175.075L226.302 169.85L230.476 172.944L235.369 171.227Z" fill="#D76EB3"/>
<path d="M194.632 142.84C192.011 143.451 189.646 144.844 187.86 146.83C186.073 148.815 184.957 151.294 184.66 153.929C184.67 158.277 188.677 162.976 193.425 162.513C195.168 162.497 196.88 162.05 198.401 161.211C199.835 160.375 201.032 159.203 201.892 157.8C202.937 155.835 203.454 153.64 203.395 151.424C203.37 149.148 202.436 146.973 200.797 145.368C199.16 143.762 196.943 142.854 194.632 142.84Z" fill="#D76EB3"/>
<path d="M185.285 165.117C184.887 164.392 184.234 163.844 183.459 163.584C182.684 163.324 181.842 163.372 181.104 163.718C179.002 164.613 177.537 167.003 176.643 169.187C175.489 167.409 173.774 165.821 171.745 165.311C169.606 164.777 168.201 166.273 167.948 168.376C167.618 171.104 169.292 173.684 171.006 175.637C173.294 178.234 179.485 183.674 179.731 183.328C181.776 180.507 183.372 177.378 184.46 174.051C185.276 171.526 186.704 167.652 185.285 165.117ZM179.547 181.751C176.028 179.399 172.069 176.406 170.045 172.578C169.157 170.899 168.608 168.712 169.536 166.936C170.562 164.976 172.971 166.555 174.118 167.614C174.985 168.44 175.696 169.422 176.211 170.509C176.357 170.802 177.2 170.928 177.324 170.557C177.947 168.694 179.111 165.875 180.899 164.86C181.878 164.306 183.769 164.322 184.306 165.482C184.532 166.027 184.654 166.61 184.664 167.199C184.652 168.327 184.507 169.448 184.225 170.537C183.369 174.544 181.783 178.346 179.547 181.751Z" fill="#D76EB3"/>
<path d="M244.666 152.27L246.208 151.887L249.642 165.974L248.097 166.356L244.666 152.27Z" fill="#D76EB3"/>
<path d="M254.361 147.009L255.906 146.627L259.56 161.628L258.018 162.011L254.361 147.009Z" fill="#D76EB3"/>
<path d="M244.458 151.424L255.78 146.124L256.997 151.109L245.673 156.409L244.458 151.424Z" fill="#D76EB3"/>
<path d="M247.495 169.905C249.33 168.922 250.229 167.008 249.503 165.63C248.775 164.252 246.698 163.931 244.863 164.914C243.026 165.897 242.127 167.811 242.855 169.189C243.581 170.567 245.658 170.887 247.495 169.905Z" fill="#D76EB3"/>
<path d="M257.368 165.375C259.206 164.393 260.104 162.479 259.376 161.1C258.65 159.722 256.573 159.402 254.736 160.385C252.901 161.368 252.002 163.282 252.73 164.66C253.456 166.038 255.533 166.358 257.368 165.375Z" fill="#D76EB3"/>
<path d="M197.977 182.103C200.256 179.074 201.529 175.722 202.802 172.205C203.683 169.77 204.726 167.446 206.768 165.712C207.417 165.166 208.195 164.775 209.044 164.57C209.048 164.551 209.047 164.531 209.049 164.512C209.683 158.891 215.321 151.678 221.803 152.164C225.966 147.16 235.065 144.998 236.671 153.375C236.797 154.026 235.754 154.237 235.628 153.584C234.263 146.47 227.132 148.139 223.125 152.372C223.681 152.504 224.224 152.688 224.743 152.922C229.348 154.996 228.368 162.087 224.126 163.701C222.139 164.458 220.652 162.795 219.925 161.189C218.637 158.347 219.437 155.484 221.079 153.113C215.826 153.206 210.775 159.05 210.107 164.399C211.367 164.294 212.646 164.556 213.776 165.152C214.907 165.747 215.834 166.648 216.433 167.734C217.382 169.565 216.878 173.271 213.96 172.633C210.588 171.896 209.076 168.733 208.995 165.773C208.457 165.931 207.958 166.171 207.507 166.481C205.057 168.22 204.186 171.529 203.25 174.152C202.246 177.194 200.779 180.064 198.892 182.673C198.501 183.197 197.581 182.63 197.977 182.103ZM220.615 160.024C221.532 163.235 224.033 163.51 225.742 160.909C227.306 158.525 227.119 155.096 224.084 153.729C223.546 153.488 222.983 153.316 222.403 153.217C220.812 155.24 219.948 157.69 220.615 160.024ZM211.478 169.951C213.312 172.22 216.383 172.026 215.723 168.861C215.183 166.267 212.467 165.239 210.035 165.552C209.98 167.112 210.491 168.664 211.478 169.951Z" fill="#D76EB3"/>
<g filter="url(#filter3_d_238_9765)">
<path d="M269.145 11.2873L160.692 11.5534C157.4 11.5609 154.736 14.2429 154.745 17.5403L154.951 114.731C154.958 118.028 157.635 120.696 160.927 120.686L269.38 120.421C272.672 120.411 275.337 117.732 275.33 114.435L275.121 17.2436C275.115 13.9465 272.438 11.279 269.145 11.2873Z" fill="white"/>
</g>
<path d="M154.745 17.5403C154.736 14.2405 157.4 11.5609 160.695 11.5536L269.145 11.2873C272.44 11.2793 275.115 13.9465 275.121 17.2436L275.234 70.035L154.857 70.3317L154.745 17.5403Z" fill="#60C689"/>
<path d="M266.224 77.9891L163.902 78.2391L163.928 90.3658L266.248 90.1132L266.224 77.9891Z" fill="#E5E5EA"/>
<path d="M242.187 96.2368L163.942 96.4291L163.967 108.553L242.212 108.361L242.187 96.2368Z" fill="#E5E5EA"/>
<g filter="url(#filter4_d_238_9765)">
<path d="M124.825 151.946L16.634 152.212C13.3411 152.22 10.6773 154.9 10.6844 158.198L10.8891 253.806C10.8963 257.103 13.5715 259.771 16.8643 259.764L125.056 259.497C128.348 259.489 131.012 256.81 131.006 253.513L130.8 157.903C130.793 154.605 128.118 151.938 124.825 151.946Z" fill="white"/>
</g>
<path d="M10.6844 158.198C10.6775 154.9 13.3413 152.22 16.6342 152.212L124.825 151.946C128.118 151.938 130.793 154.605 130.8 157.903L130.908 207.948L10.7916 208.244L10.6844 158.198Z" fill="#C4FBB1"/>
<path d="M122.637 216.929L20.3157 217.181L20.3418 229.306L122.662 229.056L122.637 216.929Z" fill="#E5E5EA"/>
<path d="M98.6017 235.179L20.3564 235.371L20.3827 247.496L98.628 247.303L98.6017 235.179Z" fill="#E5E5EA"/>
<g filter="url(#filter5_d_238_9765)">
<path d="M123.266 34.2872L16.3817 34.5499C13.0887 34.558 10.4249 37.2379 10.4321 40.5361L10.635 135.263C10.6422 138.561 13.3174 141.228 16.6103 141.22L123.494 140.957C126.787 140.949 129.451 138.269 129.444 134.971L129.241 40.244C129.234 36.9461 126.558 34.2793 123.266 34.2872Z" fill="white"/>
</g>
<path d="M10.4321 40.5358C10.4249 37.2379 13.0887 34.558 16.3819 34.5499L123.266 34.2872C126.558 34.2793 129.234 36.9463 129.241 40.244L129.345 88.9085L10.5364 89.2003L10.4321 40.5358Z" fill="#C2F0FF"/>
<path d="M121.618 99.3345L18.3058 99.5883L18.328 109.995L121.64 109.741L121.618 99.3345Z" fill="#E5E5EA"/>
<path d="M98.4123 117.604L18.3458 117.8L18.368 128.207L98.4348 128.011L98.4123 117.604Z" fill="#E5E5EA"/>
<defs>
<filter id="filter0_d_238_9765" x="296.154" y="189.325" width="128.586" height="117.4" filterUnits="userSpaceOnUse" color-interpolation-filters="sRGB">
<feFlood flood-opacity="0" result="BackgroundImageFix"/>
<feColorMatrix in="SourceAlpha" type="matrix" values="0 0 0 0 0 0 0 0 0 0 0 0 0 0 0 0 0 0 127 0" result="hardAlpha"/>
<feOffset dy="4"/>
<feGaussianBlur stdDeviation="2"/>
<feComposite in2="hardAlpha" operator="out"/>
<feColorMatrix type="matrix" values="0 0 0 0 0 0 0 0 0 0 0 0 0 0 0 0 0 0 0.25 0"/>
<feBlend mode="normal" in2="BackgroundImageFix" result="effect1_dropShadow_238_9765"/>
<feBlend mode="normal" in="SourceGraphic" in2="effect1_dropShadow_238_9765" result="shape"/>
</filter>
<filter id="filter1_d_238_9765" x="151.779" y="255.287" width="128.586" height="117.399" filterUnits="userSpaceOnUse" color-interpolation-filters="sRGB">
<feFlood flood-opacity="0" result="BackgroundImageFix"/>
<feColorMatrix in="SourceAlpha" type="matrix" values="0 0 0 0 0 0 0 0 0 0 0 0 0 0 0 0 0 0 127 0" result="hardAlpha"/>
<feOffset dy="4"/>
<feGaussianBlur stdDeviation="2"/>
<feComposite in2="hardAlpha" operator="out"/>
<feColorMatrix type="matrix" values="0 0 0 0 0 0 0 0 0 0 0 0 0 0 0 0 0 0 0.25 0"/>
<feBlend mode="normal" in2="BackgroundImageFix" result="effect1_dropShadow_238_9765"/>
<feBlend mode="normal" in="SourceGraphic" in2="effect1_dropShadow_238_9765" result="shape"/>
</filter>
<filter id="filter2_d_238_9765" x="151.209" y="134.292" width="128.586" height="117.4" filterUnits="userSpaceOnUse" color-interpolation-filters="sRGB">
<feFlood flood-opacity="0" result="BackgroundImageFix"/>
<feColorMatrix in="SourceAlpha" type="matrix" values="0 0 0 0 0 0 0 0 0 0 0 0 0 0 0 0 0 0 127 0" result="hardAlpha"/>
<feOffset dy="4"/>
<feGaussianBlur stdDeviation="2"/>
<feComposite in2="hardAlpha" operator="out"/>
<feColorMatrix type="matrix" values="0 0 0 0 0 0 0 0 0 0 0 0 0 0 0 0 0 0 0.25 0"/>
<feBlend mode="normal" in2="BackgroundImageFix" result="effect1_dropShadow_238_9765"/>
<feBlend mode="normal" in="SourceGraphic" in2="effect1_dropShadow_238_9765" result="shape"/>
</filter>
<filter id="filter3_d_238_9765" x="150.744" y="11.2872" width="128.586" height="117.399" filterUnits="userSpaceOnUse" color-interpolation-filters="sRGB">
<feFlood flood-opacity="0" result="BackgroundImageFix"/>
<feColorMatrix in="SourceAlpha" type="matrix" values="0 0 0 0 0 0 0 0 0 0 0 0 0 0 0 0 0 0 127 0" result="hardAlpha"/>
<feOffset dy="4"/>
<feGaussianBlur stdDeviation="2"/>
<feComposite in2="hardAlpha" operator="out"/>
<feColorMatrix type="matrix" values="0 0 0 0 0 0 0 0 0 0 0 0 0 0 0 0 0 0 0.25 0"/>
<feBlend mode="normal" in2="BackgroundImageFix" result="effect1_dropShadow_238_9765"/>
<feBlend mode="normal" in="SourceGraphic" in2="effect1_dropShadow_238_9765" result="shape"/>
</filter>
<filter id="filter4_d_238_9765" x="6.68457" y="151.946" width="128.321" height="115.818" filterUnits="userSpaceOnUse" color-interpolation-filters="sRGB">
<feFlood flood-opacity="0" result="BackgroundImageFix"/>
<feColorMatrix in="SourceAlpha" type="matrix" values="0 0 0 0 0 0 0 0 0 0 0 0 0 0 0 0 0 0 127 0" result="hardAlpha"/>
<feOffset dy="4"/>
<feGaussianBlur stdDeviation="2"/>
<feComposite in2="hardAlpha" operator="out"/>
<feColorMatrix type="matrix" values="0 0 0 0 0 0 0 0 0 0 0 0 0 0 0 0 0 0 0.25 0"/>
<feBlend mode="normal" in2="BackgroundImageFix" result="effect1_dropShadow_238_9765"/>
<feBlend mode="normal" in="SourceGraphic" in2="effect1_dropShadow_238_9765" result="shape"/>
</filter>
<filter id="filter5_d_238_9765" x="6.43164" y="34.2872" width="127.012" height="114.933" filterUnits="userSpaceOnUse" color-interpolation-filters="sRGB">
<feFlood flood-opacity="0" result="BackgroundImageFix"/>
<feColorMatrix in="SourceAlpha" type="matrix" values="0 0 0 0 0 0 0 0 0 0 0 0 0 0 0 0 0 0 127 0" result="hardAlpha"/>
<feOffset dy="4"/>
<feGaussianBlur stdDeviation="2"/>
<feComposite in2="hardAlpha" operator="out"/>
<feColorMatrix type="matrix" values="0 0 0 0 0 0 0 0 0 0 0 0 0 0 0 0 0 0 0.25 0"/>
<feBlend mode="normal" in2="BackgroundImageFix" result="effect1_dropShadow_238_9765"/>
<feBlend mode="normal" in="SourceGraphic" in2="effect1_dropShadow_238_9765" result="shape"/>
</filter>
</defs>
</svg>
