<svg width="14" height="18" viewBox="0 0 14 18" fill="none" xmlns="http://www.w3.org/2000/svg">
<path d="M11.9064 0H2.09361C1.53892 0.00170455 1.00739 0.222729 0.615058 0.615058C0.222728 1.00739 0.0017091 1.53892 0 2.09361V12.7275C0 12.9549 0.121306 13.165 0.318183 13.2786C0.515061 13.3923 0.757677 13.3923 0.95455 13.2786C1.15142 13.165 1.27273 12.9549 1.27273 12.7275V2.09361C1.27273 1.87585 1.35924 1.66706 1.51322 1.51321C1.66706 1.35923 1.87586 1.27272 2.09362 1.27272H11.9064C12.1242 1.27272 12.3329 1.35923 12.4868 1.51321C12.6408 1.66704 12.7273 1.87585 12.7273 2.09361V15.7246C12.7273 15.9423 12.6408 16.1511 12.4868 16.305C12.333 16.459 12.1242 16.5455 11.9064 16.5455H2.09362C1.87586 16.5455 1.66707 16.459 1.51322 16.305C1.35924 16.1512 1.27273 15.9423 1.27273 15.7246C1.27273 15.4972 1.15143 15.2871 0.95455 15.1735C0.757673 15.0598 0.515057 15.0598 0.318183 15.1735C0.12131 15.2871 0 15.4972 0 15.7246C0.00170455 16.2793 0.222728 16.8108 0.615058 17.2031C1.00739 17.5955 1.53892 17.8165 2.09361 17.8182H11.9064C12.4611 17.8165 12.9926 17.5955 13.3849 17.2031C13.7773 16.8108 13.9983 16.2793 14 15.7246V2.09361C13.9983 1.53892 13.7773 1.00739 13.3849 0.615058C12.9926 0.222729 12.4611 0.0017091 11.9064 0Z" fill="#474747"/>
<path d="M6.75999 4.84911L7.00175 4.34002L7.24351 4.84911C7.3428 5.0504 7.54081 5.18463 7.76467 5.20224C7.9884 5.21985 8.205 5.11815 8.33442 4.93462C8.46383 4.75124 8.48698 4.51317 8.39536 4.30818L7.80361 3.03545C7.71086 2.82778 7.54126 2.66429 7.33045 2.57919C7.11951 2.49411 6.88401 2.49411 6.67306 2.57919C6.46226 2.66428 6.29266 2.82777 6.1999 3.03545L5.6908 4.09826L4.57716 4.27013V4.26999C4.41437 4.29386 4.26168 4.36317 4.13669 4.47028C4.01168 4.57724 3.9195 4.7173 3.87078 4.87453C3.81509 5.03348 3.80529 5.20493 3.84237 5.36926C3.87944 5.53347 3.96211 5.68404 4.08086 5.80363L4.90174 6.63731L4.70444 7.8336C4.67375 8.00661 4.69407 8.18474 4.76296 8.3464C4.83185 8.50805 4.94648 8.64612 5.09265 8.74357C5.22788 8.83917 5.38697 8.89513 5.55218 8.90522C5.71752 8.9153 5.88229 8.87922 6.02818 8.80081L7.00175 8.2727L7.99452 8.82001C8.12577 8.8899 8.27208 8.92697 8.42081 8.92811C8.60362 8.92698 8.78147 8.86916 8.9299 8.76277C9.06826 8.66476 9.17621 8.52982 9.24141 8.37342C9.30675 8.21703 9.32664 8.04544 9.29908 7.87811L9.10178 6.68181L9.92265 5.84814C10.0431 5.72868 10.1109 5.56603 10.1109 5.39628C10.1109 5.22668 10.0431 5.06404 9.92265 4.94457C9.80348 4.82596 9.64211 4.75948 9.47407 4.75948C9.30589 4.75948 9.14466 4.82596 9.02534 4.94457L8.06439 5.92454H8.06453C7.86723 6.13136 7.77774 6.41858 7.82263 6.70083L7.92448 7.3372L7.4344 7.06987V7.07001C7.16892 6.92399 6.8472 6.92399 6.58171 7.07001L6.09163 7.33734L6.19348 6.70097V6.70083C6.23893 6.41348 6.14703 6.12141 5.94533 5.91177L5.49347 5.45352L6.09162 5.35806L6.09176 5.3582C6.38551 5.31076 6.63624 5.11971 6.75995 4.84911L6.75999 4.84911Z" fill="#474747"/>
<path d="M5.08948 10.8184C4.86207 10.8184 4.65199 10.9397 4.53835 11.1365C4.42472 11.3334 4.42472 11.576 4.53835 11.7729C4.65199 11.9698 4.86207 12.0911 5.08948 12.0911H8.90768C9.1351 12.0911 9.34518 11.9698 9.45881 11.7729C9.57245 11.576 9.57245 11.3334 9.45881 11.1365C9.34518 10.9397 9.13509 10.8184 8.90768 10.8184H5.08948Z" fill="#474747" fill-opacity="0.6"/>
<path d="M3.17969 13.9999C3.17969 14.1686 3.24674 14.3306 3.36605 14.4499C3.48537 14.5692 3.6473 14.6363 3.81605 14.6363H10.1797C10.4071 14.6363 10.6172 14.515 10.7309 14.3181C10.8445 14.1212 10.8445 13.8786 10.7309 13.6817C10.6172 13.4848 10.4071 13.3635 10.1797 13.3635H3.81605C3.6473 13.3635 3.48537 13.4306 3.36605 13.5499C3.24674 13.6692 3.17969 13.8311 3.17969 13.9999Z" fill="#474747" fill-opacity="0.6"/>
</svg>
