<svg width="21" height="20" viewBox="0 0 21 20" fill="none" xmlns="http://www.w3.org/2000/svg">
<path d="M10.8828 0.0400391C5.38281 0.0400391 0.882812 4.53004 0.882812 10.06C0.882812 15.06 4.54281 19.21 9.32281 19.96V12.96H6.78281V10.06H9.32281V7.85004C9.32281 5.34004 10.8128 3.96004 13.1028 3.96004C14.1928 3.96004 15.3328 4.15004 15.3328 4.15004V6.62004H14.0728C12.8328 6.62004 12.4428 7.39004 12.4428 8.18004V10.06H15.2228L14.7728 12.96H12.4428V19.96C14.7993 19.5879 16.945 18.3856 18.4927 16.5701C20.0405 14.7546 20.8882 12.4457 20.8828 10.06C20.8828 4.53004 16.3828 0.0400391 10.8828 0.0400391Z" fill="white"/>
</svg>
