<svg width="80" height="80" viewBox="0 0 80 80" fill="none" xmlns="http://www.w3.org/2000/svg">
<g clip-path="url(#clip0_238_10654)">
<path d="M18.5519 27.3162C15.2572 27.3145 12.0198 28.1781 9.16374 29.8206C6.30764 31.4631 3.93297 33.8268 2.27734 36.6753C4.98992 48.2326 9.36326 59.7205 11.0784 66.1838C14.5108 79.1174 22.2864 79.9558 25.7452 78.7582C30.235 77.9929 38.3566 73.2493 34.9243 60.3957C32.6551 51.8969 32.7658 42.1594 33.5117 34.7189C31.7567 32.4163 29.4934 30.5502 26.8985 29.2661C24.3036 27.9821 21.4471 27.3148 18.5519 27.3162Z" fill="#FAB96F"/>
<path d="M15.5543 22.2187V17.6219C15.5533 17.2282 15.63 16.8382 15.78 16.4741C15.9299 16.1101 16.1503 15.7793 16.4283 15.5005C16.7063 15.2218 17.0366 15.0006 17.4003 14.8497C17.7639 14.6988 18.1538 14.6211 18.5475 14.6211C18.9412 14.6211 19.331 14.6988 19.6947 14.8497C20.0583 15.0006 20.3886 15.2218 20.6667 15.5005C20.9447 15.7793 21.165 16.1101 21.315 16.4741C21.465 16.8382 21.5417 17.2282 21.5407 17.6219V22.2184C26.3187 22.8071 30.8103 24.8157 34.4347 27.9844C34.5984 27.0799 34.7632 26.2568 34.9209 25.5664C38.6458 16.8508 40.0694 -0.281021 15.9641 0.916656C0.309398 1.69435 -1.54536 14.9214 0.877133 29.7152C4.73569 25.5681 9.93256 22.9137 15.5543 22.2187Z" fill="#FAB96F"/>
<path d="M61.4578 27.3162C58.5626 27.3147 55.7061 27.982 53.1112 29.2661C50.5163 30.5502 48.253 32.4163 46.4979 34.7189C47.2439 42.1594 47.3546 51.8968 45.0854 60.3956C41.653 73.2493 49.7746 77.9929 54.2643 78.7582C57.7232 79.9557 65.4989 79.1174 68.9311 66.1837C70.6463 59.7205 75.0198 48.2325 77.7323 36.6754C76.0767 33.8269 73.7021 31.4631 70.846 29.8206C67.9899 28.1782 64.7525 27.3145 61.4578 27.3162Z" fill="#FAB96F"/>
<path d="M58.4619 17.6219C58.4609 17.2282 58.5376 16.8382 58.6876 16.4741C58.8376 16.1101 59.0579 15.7793 59.3359 15.5005C59.614 15.2218 59.9443 15.0006 60.3079 14.8497C60.6716 14.6988 61.0614 14.6211 61.4551 14.6211C61.8488 14.6211 62.2387 14.6988 62.6023 14.8497C62.966 15.0006 63.2963 15.2218 63.5743 15.5005C63.8523 15.7793 64.0727 16.1101 64.2226 16.4741C64.3726 16.8382 64.4493 17.2282 64.4483 17.6219V22.2187C70.0701 22.9138 75.267 25.5681 79.1256 29.7152C81.5481 14.9214 79.6933 1.69435 64.0386 0.916656C39.9332 -0.281021 41.3568 16.8508 45.0817 25.5664C45.2396 26.2568 45.4043 27.0799 45.568 27.9844C49.1923 24.8157 53.6839 22.8072 58.4619 22.2185V17.6219Z" fill="#FAB96F"/>
</g>
<defs>
<clipPath id="clip0_238_10654">
<rect width="80" height="80" fill="white"/>
</clipPath>
</defs>
</svg>
