<svg width="79" height="79" viewBox="0 0 79 79" fill="none" xmlns="http://www.w3.org/2000/svg">
<g clip-path="url(#clip0_238_10664)">
<path d="M39.5 0C17.6847 0 0 17.6847 0 39.5C0 61.3153 17.6847 79 39.5 79C61.3153 79 79 61.3153 79 39.5C79 17.6847 61.3153 0 39.5 0ZM54.1269 50.7421L42.5705 62.2984C41.7561 63.1128 40.6517 63.5703 39.5 63.5703C38.3483 63.5703 37.2439 63.1128 36.4295 62.2984L24.8733 50.7421C16.7951 42.6639 16.7951 29.5665 24.8733 21.4883C32.9513 13.4101 46.0487 13.4101 54.1269 21.4883C62.2049 29.5665 62.2049 42.6639 54.1269 50.7421Z" fill="#60C689"/>
<path d="M39.4946 43.6367C43.6489 43.6367 47.0166 40.269 47.0166 36.1147C47.0166 31.9605 43.6489 28.5928 39.4946 28.5928C35.3404 28.5928 31.9727 31.9605 31.9727 36.1147C31.9727 40.269 35.3404 43.6367 39.4946 43.6367Z" fill="#60C689"/>
</g>
<defs>
<clipPath id="clip0_238_10664">
<rect width="79" height="79" fill="white"/>
</clipPath>
</defs>
</svg>
