<svg width="79" height="79" viewBox="0 0 79 79" fill="none" xmlns="http://www.w3.org/2000/svg">
<g clip-path="url(#clip0_238_10668)">
<path d="M44.2057 2.01704C44.2057 0.903724 40.6127 0 39.4993 0C38.386 0 34.793 0.903558 34.793 2.01704L37.4823 31.9362C37.4823 33.0495 38.3859 33.9533 39.4993 33.9533C40.6128 33.9533 41.5164 33.0497 41.5164 31.9362L44.2057 2.01704Z" fill="#010002"/>
<path d="M45.043 39.4999C45.043 40.6132 45.9465 41.5169 47.06 41.5169L76.9792 42.8617C78.0925 42.8617 78.9962 40.6134 78.9962 39.5001C78.9962 38.3867 78.0927 36.1384 76.9792 36.1384L47.06 37.4828C45.9467 37.4828 45.043 38.3864 45.043 39.4999Z" fill="#010002"/>
<path d="M39.4993 78.9999C40.6127 78.9999 44.2057 78.0963 44.2057 76.9828L41.5164 47.0637C41.5164 45.9504 40.6128 45.0466 39.4993 45.0466C38.3859 45.0466 37.4823 45.9502 37.4823 47.0637L34.793 76.9828C34.793 78.0962 38.3859 78.9999 39.4993 78.9999Z" fill="#010002"/>
<path d="M0 39.5C0 40.6133 0.903558 42.8616 2.01704 42.8616L31.9362 41.5169C33.0495 41.5169 33.9533 40.6133 33.9533 39.4999C33.9533 38.3864 33.0497 37.4828 31.9362 37.4828L2.01704 36.1381C0.903558 36.1382 0 38.3865 0 39.5Z" fill="#010002"/>
<path d="M54.4729 34.9189L70.129 32.1058C70.8592 31.9739 71.3459 31.2762 71.2155 30.5447C71.0837 29.8145 70.3818 29.3278 69.6544 29.4581L53.9983 32.2712C53.2681 32.403 52.7814 33.1008 52.9117 33.8323C53.0287 34.4818 53.5948 34.939 54.2335 34.939C54.3129 34.939 54.3921 34.9336 54.4729 34.9189Z" fill="#010002"/>
<path d="M54.4733 44.2493C53.7444 44.1174 53.0425 44.6056 52.9122 45.3358C52.7803 46.0673 53.2672 46.7653 53.9987 46.8969L69.6548 49.71C69.7355 49.7247 69.8148 49.7315 69.8942 49.7315C70.5329 49.7315 71.099 49.2743 71.2159 48.6248C71.3478 47.8933 70.8609 47.1954 70.1294 47.0637L54.4733 44.2493Z" fill="#010002"/>
<path d="M26.6275 34.9187C26.7082 34.9335 26.7874 34.9403 26.8668 34.9403C27.5055 34.9403 28.0716 34.483 28.1886 33.8336C28.3204 33.102 27.8336 32.4041 27.1021 32.2724L11.446 29.4593C10.7131 29.329 10.0152 29.8157 9.88483 30.5459C9.75298 31.2774 10.2398 31.9753 10.9713 32.107L26.6275 34.9187Z" fill="#010002"/>
<path d="M10.9709 47.0624C10.2407 47.1943 9.75404 47.892 9.8844 48.6235C10.0014 49.273 10.5674 49.7302 11.2062 49.7302C11.2856 49.7302 11.3648 49.7235 11.4455 49.7087L27.1016 46.8957C27.8318 46.7638 28.3185 46.0661 28.1882 45.3345C28.0563 44.6044 27.3557 44.1163 26.627 44.248L10.9709 47.0624Z" fill="#010002"/>
<path d="M39.5038 40.7614C40.3861 40.7614 41.1013 40.0462 41.1013 39.1639C41.1013 38.2816 40.3861 37.5664 39.5038 37.5664C38.6215 37.5664 37.9062 38.2816 37.9062 39.1639C37.9062 40.0462 38.6215 40.7614 39.5038 40.7614Z" fill="#010002"/>
</g>
<defs>
<clipPath id="clip0_238_10668">
<rect width="79" height="79" fill="white"/>
</clipPath>
</defs>
</svg>
